<?xml version="1.0" encoding="UTF-8" standalone="no"?>
<svg
   width="793.70081"
   height="1122.5197"
   viewBox="0 0 210 297"
   version="1.1"
   id="svg8"
   inkscape:version="1.2.2 (b0a8486541, 2022-12-01)"
   sodipodi:docname="theme-basic-shapes.svg"
   xml:space="preserve"
   xmlns:inkscape="http://www.inkscape.org/namespaces/inkscape"
   xmlns:sodipodi="http://sodipodi.sourceforge.net/DTD/sodipodi-0.dtd"
   xmlns="http://www.w3.org/2000/svg"
   xmlns:svg="http://www.w3.org/2000/svg"
   xmlns:rdf="http://www.w3.org/1999/02/22-rdf-syntax-ns#"
   xmlns:cc="http://creativecommons.org/ns#"
   xmlns:dc="http://purl.org/dc/elements/1.1/"><defs
     id="defs2"><inkscape:path-effect
       effect="fillet_chamfer"
       id="path-effect1733"
       is_visible="true"
       lpeversion="1"
       nodesatellites_param="F,0,1,1,0,1.6419142,0,1 @ F,0,1,1,0,1.6419142,0,1 @ F,0,0,1,0,1.6419142,0,1"
       unit="px"
       method="auto"
       mode="F"
       radius="0"
       chamfer_steps="1"
       flexible="false"
       use_knot_distance="true"
       apply_no_radius="true"
       apply_with_radius="true"
       only_selected="false"
       hide_knots="false" /><inkscape:path-effect
       effect="fillet_chamfer"
       id="path-effect1178"
       is_visible="true"
       lpeversion="1"
       nodesatellites_param="F,0,1,1,0,0.75816882,0,1 @ F,0,0,1,0,0,0,1 @ F,0,0,1,0,0,0,1 @ F,0,1,1,0,0.75816882,0,1 @ F,0,1,1,0,0.75816882,0,1 @ F,0,0,1,0,0,0,1 @ F,0,0,1,0,0,0,1 @ F,0,1,1,0,0.75816882,0,1 @ F,0,1,1,0,0.75816882,0,1 @ F,0,0,1,0,0,0,1 @ F,0,0,1,0,0,0,1 @ F,0,1,1,0,0.75816882,0,1 @ F,0,1,1,0,0.75816882,0,1 @ F,0,0,1,0,0,0,1 @ F,0,0,1,0,0,0,1 @ F,0,1,1,0,0.75816882,0,1 @ F,0,1,1,0,0.75816882,0,1 @ F,0,0,1,0,0,0,1 @ F,0,0,1,0,0,0,1 @ F,0,1,1,0,0.75816882,0,1 @ F,0,1,1,0,0.75816882,0,1 @ F,0,0,1,0,0,0,1 @ F,0,0,1,0,0,0,1 @ F,0,1,1,0,0.75816882,0,1 @ F,0,1,1,0,0.75816882,0,1 @ F,0,0,1,0,0,0,1 @ F,0,0,1,0,0,0,1 @ F,0,1,1,0,0.75816882,0,1 @ F,0,1,1,0,0.75816882,0,1 @ F,0,0,1,0,0,0,1 @ F,0,0,1,0,0,0,1 @ F,0,1,1,0,0.75816882,0,1 @ F,0,0,1,0,0.75816882,0,1"
       unit="px"
       method="auto"
       mode="F"
       radius="0"
       chamfer_steps="1"
       flexible="false"
       use_knot_distance="true"
       apply_no_radius="true"
       apply_with_radius="true"
       only_selected="false"
       hide_knots="false" /></defs><sodipodi:namedview
     id="base"
     pagecolor="#ffffff"
     bordercolor="#666666"
     borderopacity="1.0"
     inkscape:pageopacity="0.0"
     inkscape:pageshadow="2"
     inkscape:zoom="0.65518639"
     inkscape:cx="-452.54298"
     inkscape:cy="107.60297"
     inkscape:document-units="mm"
     inkscape:current-layer="layer1"
     inkscape:document-rotation="0"
     showgrid="false"
     units="px"
     inkscape:pagecheckerboard="true"
     showborder="true"
     inkscape:showpageshadow="false"
     objecttolerance="10000"
     inkscape:snap-path-clip="true"
     inkscape:snap-path-mask="true"
     guidetolerance="10000"
     inkscape:snap-perpendicular="true"
     inkscape:snap-tangential="true"
     inkscape:window-width="2560"
     inkscape:window-height="1361"
     inkscape:window-x="0"
     inkscape:window-y="0"
     inkscape:window-maximized="1"
     inkscape:deskcolor="#d1d1d1" /><metadata
     id="metadata5"><rdf:RDF><cc:Work
         rdf:about=""><dc:format>image/svg+xml</dc:format><dc:type
           rdf:resource="http://purl.org/dc/dcmitype/StillImage" /></cc:Work></rdf:RDF></metadata><g
     inkscape:label="Calque 1"
     inkscape:groupmode="layer"
     id="layer1"><text
       xml:space="preserve"
       style="font-size:3.52777px;line-height:100%;font-family:Arial;-inkscape-font-specification:Arial;letter-spacing:0px;word-spacing:0px;fill:none;stroke:#000000;stroke-width:0.264583px;stroke-linecap:butt;stroke-linejoin:miter;stroke-opacity:1"
       x="-119.45267"
       y="91.346153"
       id="text867"><tspan
         sodipodi:role="line"
         id="tspan865"
         x="-119.45267"
         y="91.346153"
         style="stroke-width:0.264583px" /><tspan
         sodipodi:role="line"
         x="-119.45267"
         y="94.873924"
         style="stroke-width:0.264583px"
         id="tspan869" /><tspan
         sodipodi:role="line"
         x="-119.45267"
         y="98.401695"
         style="stroke-width:0.264583px"
         id="tspan871" /><tspan
         sodipodi:role="line"
         x="-119.45267"
         y="101.92947"
         style="stroke-width:0.264583px"
         id="tspan873" /><tspan
         sodipodi:role="line"
         x="-119.45267"
         y="105.45723"
         style="stroke-width:0.264583px"
         id="tspan875" /><tspan
         sodipodi:role="line"
         x="-119.45267"
         y="108.985"
         style="stroke-width:0.264583px"
         id="tspan877" /></text><rect
       style="fill:#0092e9;stroke-width:1.32292;stroke-linecap:square;stroke-linejoin:bevel;paint-order:stroke fill markers"
       id="rect239"
       width="210"
       height="13.511968"
       x="0"
       y="0" /><text
       xml:space="preserve"
       style="font-size:7.09374px;line-height:100%;font-family:Quantico;-inkscape-font-specification:Quantico;letter-spacing:0px;word-spacing:0px;fill:#ffffff;fill-opacity:1;stroke:none;stroke-width:0.264583px;stroke-linecap:butt;stroke-linejoin:miter;stroke-opacity:1"
       x="155.56773"
       y="9.2387924"
       id="text349"><tspan
         sodipodi:role="line"
         id="tspan347"
         style="fill:#ffffff;fill-opacity:1;stroke:none;stroke-width:0.264583px"
         x="155.56773"
         y="9.2387924">USERNAME</tspan></text><path
       id="rect1065"
       style="fill:#ffffff;stroke-width:1.32292;stroke-linecap:square;stroke-linejoin:bevel;paint-order:stroke fill markers"
       d="m 201.75373,1.8251522 c -0.0708,-0.0038 -0.14761,0.00474 -0.22779,0.03351 -0.16034,0.057546 -0.30344,0.2054079 -0.37567,0.3956049 l -0.0611,0.1568941 c -0.10145,-0.00285 -0.20218,0.00206 -0.30339,0.010778 l -0.0708,-0.1567777 c -0.13611,-0.3027867 -0.46833,-0.471657 -0.80015,-0.3559375 -0.18278,0.063743 -0.35907,0.1421735 -0.52838,0.2367565 -0.30822,0.172183 -0.39947,0.5346024 -0.26359,0.8370508 l 0.069,0.1545093 c -0.0741,0.070149 -0.14339,0.1442591 -0.20902,0.2224033 l -0.15706,-0.059563 c -0.30996,-0.1176927 -0.66495,-0.0026 -0.81721,0.3139379 -0.0851,0.1769796 -0.15385,0.3580786 -0.20598,0.5405937 -0.0971,0.3397937 0.0967,0.658084 0.40445,0.7749625 l 0.15689,0.061104 c -0.002,0.1014736 -8.1e-4,0.2022338 0.008,0.303137 l -0.15421,0.0711 c -0.30172,0.13565 -0.47437,0.4661949 -0.35799,0.7999463 0.0644,0.1847205 0.14512,0.3608662 0.23882,0.5285781 0.1709,0.3059561 0.53183,0.3975011 0.83293,0.2631706 l 0.15652,-0.068269 c 0.0702,0.074087 0.14374,0.1433418 0.22188,0.2089779 l -0.059,0.1565919 c -0.11758,0.3099274 -0.002,0.6649223 0.31394,0.8172029 0.17707,0.085221 0.35758,0.1538275 0.54008,0.2059354 0.34006,0.097071 0.65989,-0.094318 0.77753,-0.4041855 l 0.059,-0.1565919 c 0.10226,0.00257 0.20363,5.536e-4 0.30523,-0.00851 l 0.0687,0.1524023 a 0.29946472,0.29946472 0 0 0 -2e-4,0.00206 c 0.13564,0.3017469 0.46624,0.473873 0.79999,0.35748 0.1838,-0.064094 0.36231,-0.144238 0.53115,-0.2385527 0.30656,-0.1712607 0.39893,-0.5335093 0.26338,-0.8349944 l -0.0711,-0.1542071 c 0.0741,-0.07016 0.1434,-0.1442637 0.20903,-0.2224022 l 0.15711,0.059047 c 0.30996,0.1176907 0.66477,0.00264 0.81715,-0.3134239 0.0849,-0.1761045 0.15495,-0.3561362 0.20788,-0.5388434 a 0.29946472,0.29946472 0 0 0 5e-5,-5.142e-4 0.29946472,0.29946472 0 0 0 6e-5,-5.14e-4 0.29946472,0.29946472 0 0 0 5e-5,-5.142e-4 c 0.0977,-0.3386256 -0.0918,-0.6594713 -0.40213,-0.7773231 l -0.15916,-0.059256 c 0.002,-0.1024497 0.001,-0.2035961 -0.008,-0.3051936 l 0.15189,-0.068738 a 0.29946472,0.29946472 0 0 0 0.002,2.018e-4 c 0.30273,-0.1361083 0.47159,-0.4683734 0.35594,-0.8001541 -0.0635,-0.1820265 -0.14146,-0.3601028 -0.23656,-0.5304267 -0.17214,-0.3082552 -0.53456,-0.3995836 -0.83705,-0.2635885 a 0.29946472,0.29946472 0 0 0 -2.1e-4,0.00206 l -0.1524,0.068686 c -0.07,-0.074463 -0.14323,-0.1448027 -0.22167,-0.2110343 l 0.0591,-0.1571061 c 0.11783,-0.3104119 -0.0104,-0.6643371 -0.3227,-0.8077026 -0.0857,-0.039324 -0.17471,-0.078729 -0.26326,-0.113448 -0.0848,-0.033256 -0.16822,-0.0602 -0.25045,-0.086178 -0.056,-0.020738 -0.12087,-0.036929 -0.19169,-0.04074 z m -0.62531,1.5509149 c 0.0387,0.00571 0.13422,0.017053 0.17146,0.019986 0.0399,0.00997 0.12335,0.028567 0.16002,0.03545 0.0377,0.013457 0.12273,0.04145 0.15937,0.052007 0.0368,0.01738 0.12073,0.054198 0.15468,0.067633 0.0349,0.02086 0.10706,0.062257 0.14047,0.079695 0.0313,0.023351 0.10272,0.073057 0.13582,0.094807 0.0285,0.025816 0.0978,0.084441 0.12819,0.1085761 0.0259,0.028539 0.0846,0.089326 0.11373,0.1180169 0.0225,0.030662 0.0831,0.1075705 0.10768,0.1366219 0.0205,0.034094 0.0631,0.1014016 0.0851,0.1338147 0.0158,0.033906 0.0575,0.1152783 0.0767,0.1506189 0.0131,0.036689 0.0462,0.1218678 0.0614,0.1573815 0.01,0.03776 0.0334,0.1187536 0.0455,0.156281 0.005,0.03773 0.0208,0.1266701 0.0289,0.1660274 0.002,0.038628 0.0101,0.1294652 0.0146,0.1682134 -0.002,0.038654 -0.005,0.1235646 -0.005,0.1631507 -0.006,0.037491 -0.0159,0.1269116 -0.0199,0.166274 -0.01,0.037902 -0.0287,0.1260032 -0.0358,0.1641351 -0.0139,0.037542 -0.0415,0.1236528 -0.0522,0.1604033 -0.0169,0.035766 -0.0513,0.1138866 -0.0655,0.1496959 -0.0198,0.032902 -0.0628,0.1090224 -0.081,0.143968 -0.023,0.030663 -0.0741,0.103799 -0.0959,0.1372625 -0.0254,0.028058 -0.0814,0.094617 -0.10625,0.1258296 -0.0284,0.02565 -0.0939,0.088733 -0.12202,0.1174756 -0.0311,0.022921 -0.10207,0.079708 -0.13164,0.1045548 -0.0338,0.020223 -0.10737,0.066857 -0.13937,0.088707 -0.0363,0.016966 -0.12023,0.059082 -0.15272,0.076965 -0.0384,0.013839 -0.11741,0.04458 -0.15199,0.059378 -0.0385,0.00991 -0.12434,0.034306 -0.16048,0.046051 -0.0393,0.00561 -0.12507,0.020301 -0.16335,0.0281 -0.0382,0.00207 -0.12354,0.00951 -0.16349,0.014062 -0.0382,-0.00236 -0.13291,-0.00458 -0.17148,-0.00441 -0.0392,-0.00565 -0.12393,-0.015848 -0.1622,-0.019047 -0.0381,-0.00969 -0.12694,-0.02884 -0.16465,-0.03592 -0.0364,-0.012947 -0.11453,-0.038424 -0.15337,-0.049839 -0.033,-0.015815 -0.11762,-0.05204 -0.15525,-0.06717 -0.0319,-0.019311 -0.10587,-0.060828 -0.142,-0.079851 -0.0296,-0.022323 -0.10626,-0.075568 -0.14019,-0.097847 -0.0286,-0.025856 -0.0968,-0.083756 -0.12722,-0.1079577 -0.0263,-0.029072 -0.0876,-0.093077 -0.11604,-0.120848 -0.0231,-0.031346 -0.0794,-0.1022905 -0.10404,-0.1315779 -0.0197,-0.032971 -0.0639,-0.1015908 -0.0865,-0.1349943 -0.0155,-0.033454 -0.0577,-0.1161115 -0.0771,-0.1516976 -0.0129,-0.036334 -0.0457,-0.1196436 -0.0611,-0.1557888 -0.009,-0.036518 -0.0332,-0.117022 -0.0455,-0.1557668 -0.005,-0.036836 -0.021,-0.1287973 -0.0291,-0.1686485 -0.002,-0.038624 -0.0101,-0.1289425 -0.0146,-0.1676993 0.002,-0.03817 0.004,-0.1208021 0.004,-0.1610941 0.006,-0.036456 0.0161,-0.1290704 0.0201,-0.1688448 0.01,-0.038148 0.0289,-0.1269334 0.0359,-0.1646492 0.0139,-0.038354 0.0426,-0.1263425 0.0528,-0.1618952 0.017,-0.036223 0.0499,-0.1110239 0.0642,-0.146712 0.0193,-0.032061 0.061,-0.106526 0.0799,-0.1425265 0.023,-0.030555 0.08,-0.1119668 0.10085,-0.1440365 0.027,-0.03008 0.0814,-0.093323 0.10493,-0.1228457 0.0291,-0.026376 0.0927,-0.08835 0.12038,-0.1166038 0.0301,-0.022217 0.0958,-0.074291 0.12705,-0.1003454 0.032,-0.018863 0.11084,-0.069825 0.1439,-0.092403 0.0344,-0.016069 0.10877,-0.053789 0.14455,-0.073119 0.0353,-0.012403 0.12438,-0.047121 0.16062,-0.062658 0.0373,-0.00961 0.11593,-0.032939 0.15417,-0.045133 0.0379,-0.0052 0.13592,-0.022391 0.17342,-0.030194 0.0405,-0.00234 0.12537,-0.0092 0.16293,-0.013599 0.0386,0.00225 0.12355,0.00463 0.16315,0.0046 z m 4.02659,3.6553219 c -0.0182,-0.00108 -0.0366,-4.103e-4 -0.0553,0.00218 -0.0541,0.00754 -0.10624,0.016991 -0.15755,0.027131 -0.0485,0.0096 -0.0988,0.019513 -0.14823,0.03275 -0.0524,0.011373 -0.11532,0.04064 -0.16068,0.099011 -0.0453,0.058382 -0.0646,0.1439965 -0.0442,0.2417177 l 0.0337,0.1540516 c -0.0867,0.046959 -0.16793,0.1013284 -0.24371,0.1648651 l -0.13192,-0.087138 c -0.12448,-0.081482 -0.29476,-0.062201 -0.3898,0.058629 -0.0675,0.085676 -0.12516,0.1741026 -0.17577,0.2683684 -0.0726,0.1351606 -0.019,0.3004713 0.10466,0.3814792 l 0.13018,0.083846 c -0.0281,0.094997 -0.0496,0.1920256 -0.0575,0.2902362 l -0.14695,0.030283 c -0.14542,0.030352 -0.25482,0.1658922 -0.23647,0.3188272 0.013,0.1082118 0.0355,0.2117168 0.0658,0.3136478 0.044,0.1474958 0.19641,0.2268412 0.34105,0.1966539 l 0.15328,-0.0312 c 0.0471,0.086557 0.10083,0.1678076 0.16435,0.2436562 l -0.0858,0.1289468 c -0.0804,0.1230277 -0.0658,0.2935497 0.0556,0.3889717 0.0849,0.06683 0.17525,0.127918 0.27063,0.179121 0.13521,0.07259 0.30053,0.01903 0.38148,-0.104662 l 0.0839,-0.130177 c 0.0945,0.02819 0.19232,0.04613 0.29102,0.05497 l 0.0294,0.149978 c 0.0303,0.145447 0.16583,0.254425 0.31887,0.235958 0.1082,-0.01308 0.21118,-0.0354 0.31314,-0.06588 0.14873,-0.04453 0.22826,-0.198054 0.19795,-0.343512 l -0.0325,-0.150291 c 0.0867,-0.04696 0.16789,-0.101339 0.2437,-0.164866 l 0.12941,0.086365 c 0.12448,0.08148 0.29474,0.0622 0.38979,-0.05863 0.0665,-0.084516 0.12698,-0.1724526 0.17835,-0.2681072 0.0726,-0.135131 0.0191,-0.3004901 -0.10466,-0.3814803 l -0.13024,-0.083332 c 0.028,-0.094693 0.0461,-0.1923937 0.0549,-0.2910127 l 0.15081,-0.032488 c 0.14399,-0.030069 0.25342,-0.1641167 0.23518,-0.3163614 -0.013,-0.1078015 -0.0325,-0.2124018 -0.0626,-0.3148875 -0.0438,-0.1479668 -0.19837,-0.2275675 -0.34306,-0.197376 l -0.15405,0.033718 c -0.047,-0.08678 -0.10133,-0.1679567 -0.16486,-0.2437088 l 0.0864,-0.1288862 c 0.0814,-0.1244278 0.0622,-0.2947152 -0.0587,-0.389799 -0.0845,-0.066529 -0.17246,-0.1275115 -0.26805,-0.1788609 -0.13548,-0.072744 -0.30223,-0.02059 -0.38405,0.1044016 l -0.0838,0.1296628 c -0.094,-0.027342 -0.18999,-0.048226 -0.28721,-0.056663 l -0.0325,-0.1502914 c -0.0267,-0.1280782 -0.13619,-0.2222607 -0.2634,-0.2298108 z m 0.24834,0.9466358 c 0.0242,0.00397 0.074,0.010792 0.0938,0.012631 0.0226,0.00581 0.0582,0.014163 0.0791,0.018416 0.0195,0.00775 0.0592,0.022168 0.0816,0.029576 0.0188,0.00967 0.0618,0.029766 0.0833,0.039093 0.0191,0.011619 0.0584,0.03361 0.0776,0.04371 0.0181,0.013982 0.0526,0.039222 0.0711,0.051885 0.0151,0.014552 0.0445,0.04136 0.0623,0.056702 0.0137,0.01627 0.0482,0.053405 0.0641,0.069868 0.0135,0.018469 0.0395,0.052649 0.0537,0.069858 0.0105,0.018838 0.0317,0.05353 0.044,0.073032 0.009,0.020773 0.034,0.070446 0.044,0.088607 0.008,0.022088 0.0203,0.055912 0.0282,0.075581 0.005,0.020606 0.0152,0.062136 0.0216,0.084774 0.003,0.021207 0.0108,0.067046 0.0154,0.089339 -2e-4,0.021768 0.002,0.062656 0.003,0.085517 -0.002,0.021843 -0.003,0.070597 -0.003,0.093149 -0.003,0.021866 -0.009,0.060963 -0.0115,0.084014 -0.005,0.020169 -0.0157,0.066128 -0.02,0.089386 -0.007,0.018708 -0.0193,0.05359 -0.027,0.076734 -0.009,0.01593 -0.0312,0.06485 -0.0411,0.087771 -0.0123,0.020245 -0.0374,0.064069 -0.0462,0.08154 -0.0145,0.018962 -0.0369,0.049159 -0.0489,0.06672 -0.0142,0.014615 -0.0399,0.04315 -0.0556,0.061367 -0.0156,0.013015 -0.0549,0.049245 -0.0716,0.065458 -0.0192,0.014036 -0.0553,0.041499 -0.0715,0.055075 -0.0199,0.011202 -0.0546,0.032286 -0.073,0.044016 -0.0209,0.00962 -0.0639,0.030489 -0.0831,0.04091 -0.0221,0.00753 -0.0618,0.022598 -0.0815,0.030687 -0.0225,0.00499 -0.0657,0.015452 -0.0863,0.021372 -0.0217,0.00309 -0.0603,0.00961 -0.0824,0.013973 -0.0201,1.405e-4 -0.0601,0.00231 -0.0845,0.00389 -0.0201,-0.00156 -0.0733,-0.00349 -0.0967,-0.00358 -0.0238,-0.00389 -0.0711,-0.01042 -0.0917,-0.012419 -0.0223,-0.00577 -0.0599,-0.014294 -0.0812,-0.018628 -0.0195,-0.00775 -0.0592,-0.022168 -0.0816,-0.029576 -0.0202,-0.010357 -0.0703,-0.033761 -0.0892,-0.041775 -0.0219,-0.013099 -0.0598,-0.035272 -0.0761,-0.043559 -0.0191,-0.014606 -0.0494,-0.037472 -0.0667,-0.049354 -0.0147,-0.014215 -0.0428,-0.03939 -0.0609,-0.054999 -0.013,-0.015609 -0.0497,-0.054891 -0.066,-0.071622 -0.0136,-0.01862 -0.0391,-0.05224 -0.0532,-0.069283 -0.0107,-0.019289 -0.0332,-0.056816 -0.0453,-0.075754 -0.01,-0.021006 -0.0306,-0.063458 -0.041,-0.082588 -0.008,-0.021681 -0.022,-0.06013 -0.0302,-0.08046 -0.005,-0.02139 -0.0153,-0.062882 -0.0216,-0.084774 -0.003,-0.02164 -0.01,-0.065613 -0.0144,-0.087686 2e-4,-0.021839 -0.003,-0.063888 -0.004,-0.086597 0.002,-0.02237 0.004,-0.070424 0.003,-0.092634 0.003,-0.021974 0.008,-0.06116 0.0115,-0.084013 0.005,-0.020155 0.0157,-0.065592 0.02,-0.088872 0.008,-0.019022 0.0201,-0.055838 0.0277,-0.07874 0.01,-0.017941 0.032,-0.066337 0.0411,-0.087771 0.012,-0.019589 0.0331,-0.056717 0.0429,-0.075633 0.0136,-0.017578 0.0376,-0.050618 0.0507,-0.069654 0.0139,-0.014371 0.0404,-0.044417 0.0562,-0.062859 0.0156,-0.012957 0.0547,-0.048629 0.0715,-0.064944 0.0181,-0.013279 0.0506,-0.038403 0.0682,-0.052817 0.0194,-0.010736 0.0606,-0.035689 0.0791,-0.047554 0.0216,-0.010051 0.0617,-0.030029 0.0805,-0.040144 0.0215,-0.00736 0.0601,-0.021503 0.0804,-0.029761 0.0232,-0.00511 0.0733,-0.01774 0.0922,-0.023367 0.0225,-0.00332 0.0562,-0.00884 0.0771,-0.012956 0.0205,-1.101e-4 0.0648,-0.00184 0.0887,-0.00347 0.0219,0.00154 0.0705,0.00313 0.0932,0.00322 z" /><path
       id="rect1242"
       style="fill:#ffffff;stroke-width:1.32292;stroke-linecap:square;stroke-linejoin:bevel;paint-order:stroke fill markers"
       d="m 5.6286849,3.1048357 c -0.4709642,0 -0.840417,0.3705791 -0.8404171,0.8420491 0,0.4714697 0.3689473,0.840417 0.8404171,0.840417 h 7.8754431 c 0.471469,0 0.840416,-0.3689473 0.840416,-0.840417 0,-0.4714699 -0.369452,-0.8420491 -0.840416,-0.8420491 z m 0,3.0059191 c -0.4714697,0 -0.840417,0.3689473 -0.8404171,0.8404171 0,0.4714699 0.3694529,0.842049 0.8404171,0.842049 h 7.8754431 c 0.470964,0 0.840416,-0.3705791 0.840416,-0.842049 0,-0.4714698 -0.368947,-0.8404171 -0.840416,-0.8404171 z m 0,3.0042871 c -0.470964,0 -0.840417,0.3705796 -0.8404171,0.8420489 0,0.4714692 0.3689474,0.8404172 0.8404171,0.8404172 h 7.8754431 c 0.471469,0 0.840416,-0.368948 0.840416,-0.8404172 0,-0.4714692 -0.369452,-0.8420489 -0.840416,-0.8420489 z" /><rect
       style="fill:#393e46;stroke-width:1.32292;stroke-linecap:square;stroke-linejoin:bevel;paint-order:stroke fill markers"
       id="rect1669"
       width="210"
       height="13.511968"
       x="0"
       y="13.511968" /><text
       xml:space="preserve"
       style="font-size:7.09374px;line-height:100%;font-family:Quantico;-inkscape-font-specification:Quantico;letter-spacing:0px;word-spacing:0px;fill:#ffffff;fill-opacity:1;stroke:none;stroke-width:0.264583px;stroke-linecap:butt;stroke-linejoin:miter;stroke-opacity:1"
       x="18.871582"
       y="22.750761"
       id="text1673"><tspan
         sodipodi:role="line"
         id="tspan1671"
         style="fill:#ffffff;fill-opacity:1;stroke:none;stroke-width:0.264583px"
         x="18.871582"
         y="22.750761">Nom du jeu</tspan></text><path
       id="rect1729"
       style="fill:#ffffff;fill-opacity:1;stroke:none;stroke-width:1.32292;stroke-linecap:square;stroke-linejoin:bevel;paint-order:stroke fill markers"
       d="m 7.9077562,19.442638 1.9983416,1.998341 a 0.83945578,0.83945578 0 0 0 1.1871692,1e-6 L 13.09161,19.442637 A 0.34771383,0.34771383 0 0 0 12.845739,18.849053 H 8.1536273 a 0.34771391,0.34771391 0 0 0 -0.2458711,0.593585 z" /><text
       xml:space="preserve"
       style="font-size:22.5778px;line-height:100%;font-family:Quantico;-inkscape-font-specification:Quantico;letter-spacing:0px;word-spacing:0px;fill:#393e46;stroke:none;stroke-width:0.264583px;stroke-linecap:butt;stroke-linejoin:miter;stroke-opacity:1"
       x="-464.4035"
       y="-50.800053"
       id="text373"><tspan
         sodipodi:role="line"
         id="tspan371"
         style="fill:#393e46;stroke:none;stroke-width:0.264583px"
         x="-464.4035"
         y="-50.800053">4 vues</tspan><tspan
         sodipodi:role="line"
         style="fill:#393e46;stroke:none;stroke-width:0.264583px"
         x="-464.4035"
         y="-28.22225"
         id="tspan425" /><tspan
         sodipodi:role="line"
         style="fill:#393e46;stroke:none;stroke-width:0.264583px"
         x="-464.4035"
         y="-5.6444502"
         id="tspan427">Vue projet</tspan><tspan
         sodipodi:role="line"
         style="fill:#393e46;stroke:none;stroke-width:0.264583px"
         x="-464.4035"
         y="16.933352"
         id="tspan429">Vue Bug</tspan><tspan
         sodipodi:role="line"
         style="fill:#393e46;stroke:none;stroke-width:0.264583px"
         x="-464.4035"
         y="39.51115"
         id="tspan431">Vue dashboard</tspan><tspan
         sodipodi:role="line"
         style="fill:#393e46;stroke:none;stroke-width:0.264583px"
         x="-464.4035"
         y="62.088951"
         id="tspan433">Vue profil utilisateur</tspan></text></g></svg>
